<?xml version="1.0" encoding="UTF-8" standalone="no"?>
<!-- Created with Inkscape (http://www.inkscape.org/) -->

<svg
   xmlns:dc="http://purl.org/dc/elements/1.1/"
   xmlns:cc="http://creativecommons.org/ns#"
   xmlns:rdf="http://www.w3.org/1999/02/22-rdf-syntax-ns#"
   xmlns:svg="http://www.w3.org/2000/svg"
   xmlns="http://www.w3.org/2000/svg"
   xmlns:sodipodi="http://sodipodi.sourceforge.net/DTD/sodipodi-0.dtd"
   xmlns:inkscape="http://www.inkscape.org/namespaces/inkscape"
   width="210mm"
   height="297mm"
   viewBox="0 0 744.09448819 1052.3622047"
   id="svg2"
   version="1.1"
   inkscape:version="0.91 r13725"
   inkscape:export-filename="C:\Users\Yuktesh\LogoCosmos.png"
   inkscape:export-xdpi="90"
   inkscape:export-ydpi="90"
   sodipodi:docname="CosmosFecLogo.svg">
  <defs
     id="defs4">
    <inkscape:path-effect
       effect="spiro"
       id="path-effect4658"
       is_visible="true" />
    <inkscape:path-effect
       effect="spiro"
       id="path-effect4654"
       is_visible="true" />
    <inkscape:path-effect
       effect="spiro"
       id="path-effect4143-0"
       is_visible="true" />
  </defs>
  <sodipodi:namedview
     id="base"
     pagecolor="#ffffff"
     bordercolor="#666666"
     borderopacity="1.0"
     inkscape:pageopacity="0.0"
     inkscape:pageshadow="2"
     inkscape:zoom="0.90509668"
     inkscape:cx="394.48361"
     inkscape:cy="529.12591"
     inkscape:document-units="px"
     inkscape:current-layer="layer1"
     showgrid="false"
     showborder="false"
     inkscape:object-nodes="false"
     inkscape:window-width="1536"
     inkscape:window-height="801"
     inkscape:window-x="-8"
     inkscape:window-y="-8"
     inkscape:window-maximized="1"
     inkscape:snap-text-baseline="false" />
  <metadata
     id="metadata7">
    <rdf:RDF>
      <cc:Work
         rdf:about="">
        <dc:format>image/svg+xml</dc:format>
        <dc:type
           rdf:resource="http://purl.org/dc/dcmitype/StillImage" />
        <dc:title />
      </cc:Work>
    </rdf:RDF>
  </metadata>
  <g
     inkscape:label="Layer 1"
     inkscape:groupmode="layer"
     id="layer1">
    <g
       id="g3394"
       transform="translate(25851.307,11240.901)">
      <path
         inkscape:connector-curvature="0"
         inkscape:original-d="m -25237.202,-10676.475 -80.014,46.196 0,-95.271 z"
         inkscape:path-effect="#path-effect4658"
         id="path4656"
         d="m -25237.202,-10676.475 -80.014,46.196 0,-95.271 80.014,49.075 z"
         style="opacity:1;fill:#ff6600;fill-opacity:1;fill-rule:evenodd;stroke:none;stroke-width:1px;stroke-linecap:butt;stroke-linejoin:miter;stroke-opacity:1" />
      <path
         inkscape:connector-curvature="0"
         inkscape:original-d="m -25721.317,-10741.872 89.921,-51.916 14.756,68.238 z"
         inkscape:path-effect="#path-effect4654"
         id="path4652"
         d="m -25721.317,-10741.872 89.921,-51.916 14.756,68.238 -104.677,-16.322 z"
         style="opacity:1;fill:#ff6600;fill-opacity:1;fill-rule:evenodd;stroke:none;stroke-width:1px;stroke-linecap:butt;stroke-linejoin:miter;stroke-opacity:1" />
      <path
         inkscape:connector-curvature="0"
         id="path4276"
         d="m -25479.259,-10966.75 -5,2.887 -5,2.887 -183.559,105.976 0,198.752 c 0,106.677 86.882,193.559 193.559,193.559 106.677,0 193.559,-86.882 193.558,-193.559 l 0,-198.752 -193.558,-111.75 z"
         style="color:#000000;font-style:normal;font-variant:normal;font-weight:normal;font-stretch:normal;font-size:medium;line-height:normal;font-family:sans-serif;text-indent:0;text-align:start;text-decoration:none;text-decoration-line:none;text-decoration-style:solid;text-decoration-color:#000000;letter-spacing:normal;word-spacing:normal;text-transform:none;direction:ltr;block-progression:tb;writing-mode:lr-tb;baseline-shift:baseline;text-anchor:start;white-space:normal;clip-rule:nonzero;display:inline;overflow:visible;visibility:visible;opacity:1;isolation:auto;mix-blend-mode:normal;color-interpolation:sRGB;color-interpolation-filters:linearRGB;solid-color:#000000;solid-opacity:1;fill:#000000;fill-opacity:1;fill-rule:nonzero;stroke:none;stroke-width:20;stroke-linecap:butt;stroke-linejoin:miter;stroke-miterlimit:4;stroke-dasharray:none;stroke-dashoffset:0;stroke-opacity:1;color-rendering:auto;image-rendering:auto;shape-rendering:auto;text-rendering:auto;enable-background:accumulate" />
      <path
         inkscape:connector-curvature="0"
         id="path4267"
         d="m -25479.259,-10955.203 -5,2.887 -178.559,103.09 0,192.978 c 0,101.258 82.301,183.559 183.559,183.559 101.258,0 183.559,-82.301 183.558,-183.559 l 0,-192.978 -183.558,-105.977 z"
         style="color:#000000;font-style:normal;font-variant:normal;font-weight:normal;font-stretch:normal;font-size:medium;line-height:normal;font-family:sans-serif;text-indent:0;text-align:start;text-decoration:none;text-decoration-line:none;text-decoration-style:solid;text-decoration-color:#000000;letter-spacing:normal;word-spacing:normal;text-transform:none;direction:ltr;block-progression:tb;writing-mode:lr-tb;baseline-shift:baseline;text-anchor:start;white-space:normal;clip-rule:nonzero;display:inline;overflow:visible;visibility:visible;opacity:1;isolation:auto;mix-blend-mode:normal;color-interpolation:sRGB;color-interpolation-filters:linearRGB;solid-color:#000000;solid-opacity:1;fill:#ff6600;fill-opacity:1;fill-rule:nonzero;stroke:none;stroke-width:20;stroke-linecap:butt;stroke-linejoin:miter;stroke-miterlimit:4;stroke-dasharray:none;stroke-dashoffset:0;stroke-opacity:1;color-rendering:auto;image-rendering:auto;shape-rendering:auto;text-rendering:auto;enable-background:accumulate" />
      <path
         style="opacity:1;fill:#000000;fill-opacity:1;stroke:none;stroke-width:6.39035034;stroke-miterlimit:4;stroke-dasharray:none;stroke-opacity:1"
         d="m -25479.259,-10943.656 -173.559,100.203 0,187.205 c 0,95.854 77.705,173.559 173.559,173.559 95.854,0 173.559,-77.705 173.559,-173.559 l 0,-187.205 z"
         id="path4237"
         inkscape:connector-curvature="0"
         sodipodi:nodetypes="ccssscc" />
      <path
         inkscape:connector-curvature="0"
         id="path4649"
         d="m -25721.317,-10741.872 0,12.334 0,113.063 484.115,-60 0,-125.397 -484.115,60 z"
         style="color:#000000;font-style:normal;font-variant:normal;font-weight:normal;font-stretch:normal;font-size:medium;line-height:normal;font-family:sans-serif;text-indent:0;text-align:start;text-decoration:none;text-decoration-line:none;text-decoration-style:solid;text-decoration-color:#000000;letter-spacing:normal;word-spacing:normal;text-transform:none;direction:ltr;block-progression:tb;writing-mode:lr-tb;baseline-shift:baseline;text-anchor:start;white-space:normal;clip-rule:nonzero;display:inline;overflow:visible;visibility:visible;opacity:1;isolation:auto;mix-blend-mode:normal;color-interpolation:sRGB;color-interpolation-filters:linearRGB;solid-color:#000000;solid-opacity:1;fill:#ff6600;fill-opacity:1;fill-rule:nonzero;stroke:none;stroke-width:24;stroke-linecap:butt;stroke-linejoin:miter;stroke-miterlimit:4;stroke-dasharray:none;stroke-dashoffset:0;stroke-opacity:1;color-rendering:auto;image-rendering:auto;shape-rendering:auto;text-rendering:auto;enable-background:accumulate" />
      <rect
         transform="matrix(0.9924071,-0.12299651,0,1,0,0)"
         y="-13917.374"
         x="-25905.682"
         height="100.72876"
         width="462.96173"
         id="rect4641"
         style="opacity:1;fill:#000000;fill-opacity:1;stroke:none;stroke-width:20;stroke-miterlimit:4;stroke-dasharray:none;stroke-opacity:1" />
      <g
         id="text4279"
         style="font-style:normal;font-variant:normal;font-weight:normal;font-stretch:normal;font-size:98.47624969px;line-height:125%;font-family:sans-serif;-inkscape-font-specification:'sans-serif, Normal';text-align:start;letter-spacing:0px;word-spacing:0px;writing-mode:lr-tb;text-anchor:start;opacity:1;fill:#ff6600;fill-opacity:1;stroke:none;stroke-width:1px;stroke-linecap:butt;stroke-linejoin:miter;stroke-opacity:1"
         transform="matrix(1,-0.12393756,0,1,-26178.64,-11248.912)">
        <path
           inkscape:connector-curvature="0"
           id="path3387"
           d="m 543.56366,657.02445 q -2.64463,1.15401 -4.80841,2.16378 -2.1157,1.00977 -5.57776,2.1157 -2.93313,0.9136 -6.39518,1.53869 -3.41398,0.67318 -7.54921,0.67318 -7.78962,0 -14.18481,-2.16378 -6.3471,-2.21187 -11.05934,-6.87603 -4.61608,-4.56799 -7.21262,-11.58827 -2.59654,-7.06837 -2.59654,-16.39668 0,-8.84748 2.50037,-15.81967 2.50038,-6.9722 7.21262,-11.78061 4.56799,-4.66416 11.01126,-7.11645 6.49135,-2.45229 14.37715,-2.45229 5.77009,0 11.4921,1.39444 5.77009,1.39444 12.79037,4.90458 l 0,11.29977 -0.72126,0 q -5.91435,-4.95267 -11.73252,-7.21262 -5.81818,-2.25995 -12.45379,-2.25995 -5.4335,0 -9.80916,1.77911 -4.32756,1.73103 -7.74154,5.4335 -3.3178,3.60631 -5.19308,9.13598 -1.8272,5.48159 -1.8272,12.69421 0,7.5492 2.01954,12.98271 2.06761,5.4335 5.28925,8.84747 3.36589,3.55823 7.83771,5.28925 4.5199,1.68295 9.52065,1.68295 6.87603,0 12.88654,-2.35612 6.01051,-2.35612 11.25168,-7.06837 l 0.67318,0 0,11.15552 z" />
        <path
           inkscape:connector-curvature="0"
           id="path3389"
           d="m 610.49673,598.84268 q 4.37566,4.80841 6.68369,11.7806 2.35612,6.9722 2.35612,15.81967 0,8.84748 -2.4042,15.86776 -2.35612,6.97219 -6.63561,11.63635 -4.42373,4.8565 -10.48233,7.30879 -6.01052,2.45229 -13.75206,2.45229 -7.5492,0 -13.75205,-2.50038 -6.15477,-2.50037 -10.48234,-7.2607 -4.32757,-4.76032 -6.68369,-11.68443 -2.30803,-6.92412 -2.30803,-15.81968 0,-8.7513 2.30803,-15.67541 2.30804,-6.9722 6.73178,-11.92486 4.2314,-4.71225 10.48233,-7.21262 6.29902,-2.50037 13.70397,-2.50037 7.69346,0 13.80014,2.54846 6.15477,2.50037 10.43425,7.16453 z m -0.86551,27.60027 q 0,-13.94439 -6.25093,-21.49359 -6.25094,-7.59729 -17.06986,-7.59729 -10.91509,0 -17.16603,7.59729 -6.20285,7.5492 -6.20285,21.49359 0,14.08865 6.3471,21.58977 6.34711,7.45303 17.02178,7.45303 10.67467,0 16.97369,-7.45303 6.3471,-7.50112 6.3471,-21.58977 z" />
        <path
           inkscape:connector-curvature="0"
           id="path3391"
           d="m 686.66195,641.78178 q 0,4.18332 -1.97145,8.27047 -1.92336,4.08715 -5.4335,6.92411 -3.84673,3.07738 -8.99173,4.80841 -5.09691,1.73103 -12.30953,1.73103 -7.74154,0 -13.94439,-1.44252 -6.15477,-1.44253 -12.54995,-4.27949 l 0,-11.92486 0.67318,0 q 5.4335,4.51991 12.54995,6.9722 7.11644,2.45229 13.36738,2.45229 8.84747,0 13.75205,-3.31781 4.95267,-3.3178 4.95267,-8.84747 0,-4.76033 -2.35613,-7.02028 -2.30803,-2.25995 -7.06836,-3.51014 -3.60631,-0.96168 -7.83771,-1.58678 -4.18332,-0.62509 -8.89556,-1.58677 -9.52065,-2.01953 -14.13673,-6.87603 -4.56799,-4.90458 -4.56799,-12.74229 0,-8.99172 7.59729,-14.71373 7.59729,-5.7701 19.28173,-5.7701 7.5492,0 13.84822,1.44253 6.29902,1.44252 11.15552,3.55822 l 0,11.25168 -0.67318,0 q -4.08715,-3.46205 -10.77084,-5.72201 -6.63561,-2.30803 -13.6078,-2.30803 -7.64538,0 -12.30954,3.17355 -4.61607,3.17355 -4.61607,8.1743 0,4.47182 2.30804,7.02027 2.30803,2.54846 8.12621,3.89482 3.07738,0.67318 8.75131,1.63486 5.67392,0.96168 9.61682,1.97145 7.98196,2.1157 12.02103,6.39518 4.03906,4.27949 4.03906,11.97294 z" />
        <path
           inkscape:connector-curvature="0"
           id="path3393"
           d="m 765.71222,662.21753 -9.52065,0 0,-61.69191 -19.90682,41.97743 -5.67392,0 -19.76257,-41.97743 0,61.69191 -8.89556,0 0,-71.59723 12.98271,0 19.08939,39.86172 18.46429,-39.86172 13.22313,0 0,71.59723 z" />
        <path
           inkscape:connector-curvature="0"
           id="path3395"
           d="m 838.41538,598.84268 q 4.37565,4.80841 6.68369,11.7806 2.35612,6.9722 2.35612,15.81967 0,8.84748 -2.4042,15.86776 -2.35612,6.97219 -6.63561,11.63635 -4.42374,4.8565 -10.48233,7.30879 -6.01052,2.45229 -13.75206,2.45229 -7.5492,0 -13.75205,-2.50038 -6.15477,-2.50037 -10.48234,-7.2607 -4.32757,-4.76032 -6.68369,-11.68443 -2.30804,-6.92412 -2.30804,-15.81968 0,-8.7513 2.30804,-15.67541 2.30804,-6.9722 6.73178,-11.92486 4.2314,-4.71225 10.48233,-7.21262 6.29902,-2.50037 13.70397,-2.50037 7.69346,0 13.80014,2.54846 6.15477,2.50037 10.43425,7.16453 z m -0.86551,27.60027 q 0,-13.94439 -6.25094,-21.49359 -6.25093,-7.59729 -17.06985,-7.59729 -10.9151,0 -17.16603,7.59729 -6.20285,7.5492 -6.20285,21.49359 0,14.08865 6.3471,21.58977 6.3471,7.45303 17.02178,7.45303 10.67467,0 16.97368,-7.45303 6.34711,-7.50112 6.34711,-21.58977 z" />
        <path
           inkscape:connector-curvature="0"
           id="path3397"
           d="m 914.58062,641.78178 q 0,4.18332 -1.97145,8.27047 -1.92336,4.08715 -5.4335,6.92411 -3.84673,3.07738 -8.99173,4.80841 -5.09691,1.73103 -12.30953,1.73103 -7.74154,0 -13.94439,-1.44252 -6.15477,-1.44253 -12.54995,-4.27949 l 0,-11.92486 0.67318,0 q 5.4335,4.51991 12.54995,6.9722 7.11645,2.45229 13.36738,2.45229 8.84747,0 13.75205,-3.31781 4.95267,-3.3178 4.95267,-8.84747 0,-4.76033 -2.35612,-7.02028 -2.30804,-2.25995 -7.06837,-3.51014 -3.60631,-0.96168 -7.83771,-1.58678 -4.18331,-0.62509 -8.89556,-1.58677 -9.52065,-2.01953 -14.13672,-6.87603 -4.56799,-4.90458 -4.56799,-12.74229 0,-8.99172 7.59728,-14.71373 7.59729,-5.7701 19.28173,-5.7701 7.54921,0 13.84822,1.44253 6.29902,1.44252 11.15552,3.55822 l 0,11.25168 -0.67318,0 q -4.08715,-3.46205 -10.77084,-5.72201 -6.63561,-2.30803 -13.6078,-2.30803 -7.64538,0 -12.30953,3.17355 -4.61608,3.17355 -4.61608,8.1743 0,4.47182 2.30804,7.02027 2.30804,2.54846 8.12621,3.89482 3.07739,0.67318 8.75131,1.63486 5.67392,0.96168 9.61682,1.97145 7.98196,2.1157 12.02103,6.39518 4.03906,4.27949 4.03906,11.97294 z" />
      </g>
      <g
         transform="translate(-26178.64,-11248.912)"
         id="text4662"
         style="font-style:normal;font-variant:normal;font-weight:normal;font-stretch:normal;font-size:19.5318985px;line-height:125%;font-family:'MS Sans Serif';-inkscape-font-specification:'MS Sans Serif, Normal';text-align:start;letter-spacing:2.8499999px;word-spacing:0px;writing-mode:lr-tb;text-anchor:start;opacity:1;fill:#ff6600;fill-opacity:1;stroke:none;stroke-width:1px;stroke-linecap:butt;stroke-linejoin:miter;stroke-opacity:1">
        <path
           inkscape:connector-curvature="0"
           id="path4670"
           style="letter-spacing:2.8499999px;fill:#ff6600;fill-opacity:1"
           d="m 564.96694,649.06067 -2.48561,-6.73753 -3.75799,1.38639 2.13571,5.78909 -1.57478,0.58096 -2.1357,-5.78908 -6.41542,2.36677 -0.65359,-1.77162 13.32296,-4.9151 3.13919,8.50915 -1.57477,0.58097 z" />
        <path
           inkscape:connector-curvature="0"
           id="path4672"
           style="letter-spacing:2.8499999px;fill:#ff6600;fill-opacity:1"
           d="m 559.65937,667.21069 -0.86678,-1.81607 2.97213,-2.96143 -2.64554,-5.54289 -4.17166,0.44819 -0.8257,-1.73 15.04231,-1.45179 1.08451,2.27224 -10.58927,10.78175 z m 3.31795,-6.00088 5.21952,-5.24935 -7.36799,0.7479 2.14847,4.50145 z" />
        <path
           inkscape:connector-curvature="0"
           id="path4674"
           style="letter-spacing:2.8499999px;fill:#ff6600;fill-opacity:1"
           d="m 568.76945,682.33578 -0.9997,-1.602 10.38067,-6.47785 -9.15367,1.05812 -0.59578,-0.95473 4.98826,-7.73314 -10.38067,6.47784 -0.93407,-1.49682 12.04741,-7.51794 1.36323,2.18456 -4.70295,7.39771 8.6462,-1.07869 1.38847,2.22501 -12.0474,7.51793 z" />
        <path
           inkscape:connector-curvature="0"
           id="path4676"
           style="letter-spacing:2.8499999px;fill:#ff6600;fill-opacity:1"
           d="m 575.79198,691.69053 -3.41461,-4.44835 1.14991,-0.88269 1.1324,1.47522 8.96477,-6.88149 -1.1324,-1.47521 1.14991,-0.88269 3.41462,4.44834 -1.14992,0.88269 -1.13239,-1.47521 -8.96478,6.88148 1.1324,1.47522 -1.14991,0.88269 z" />
        <path
           inkscape:connector-curvature="0"
           id="path4678"
           style="letter-spacing:2.8499999px;fill:#ff6600;fill-opacity:1"
           d="m 585.65624,703.07782 -5.9825,-6.70226 10.59412,-9.45642 1.25747,1.40876 -9.3419,8.33867 4.72504,5.2935 -1.25223,1.11775 z" />
        <path
           inkscape:connector-curvature="0"
           id="path4680"
           style="letter-spacing:2.8499999px;fill:#ff6600;fill-opacity:1"
           d="m 605.02196,701.88883 -9.10629,2.37028 -4.27351,4.53005 -1.37358,-1.2958 4.13608,-4.38436 1.95957,-9.38763 1.51927,1.43324 -1.53513,7.28381 7.20982,-1.93046 1.46377,1.38087 z" />
        <path
           inkscape:connector-curvature="0"
           id="path4682"
           style="letter-spacing:2.8499999px;fill:#ff6600;fill-opacity:1"
           d="m 614.40268,726.5184 -7.72128,-5.28336 8.0193,-11.71965 7.72128,5.28336 -0.94789,1.38527 -6.16285,-4.217 -2.19736,3.21129 6.16285,4.217 -0.94788,1.38527 -6.16285,-4.217 -2.97829,4.35256 6.16285,4.217 -0.94788,1.38526 z" />
        <path
           inkscape:connector-curvature="0"
           id="path4684"
           style="letter-spacing:2.8499999px;fill:#ff6600;fill-opacity:1"
           d="m 628.91563,734.75905 -2.05337,-1.11501 0.14494,-14.37671 -6.06202,11.16366 -1.55051,-0.84194 6.77653,-12.47951 2.57301,1.39718 -0.13664,13.12234 5.53409,-10.19145 1.55051,0.84194 -6.77654,12.4795 z" />
        <path
           inkscape:connector-curvature="0"
           id="path4686"
           style="letter-spacing:2.8499999px;fill:#ff6600;fill-opacity:1"
           d="m 649.09975,729.91586 -4.68129,-1.95656 -4.82887,11.55363 -1.74228,-0.72819 4.82887,-11.55363 -4.68129,-1.95656 0.64728,-1.5487 11.10486,4.64131 -0.64728,1.5487 z" />
        <path
           inkscape:connector-curvature="0"
           id="path4688"
           style="letter-spacing:2.8499999px;fill:#ff6600;fill-opacity:1"
           d="m 657.72817,745.80185 -8.9346,-2.7758 4.21321,-13.56127 8.93459,2.77579 -0.498,1.60294 -7.13128,-2.21554 -1.15446,3.71592 7.13129,2.21554 -0.49801,1.60294 -7.13128,-2.21553 -1.56474,5.03652 7.13128,2.21554 -0.498,1.60295 z" />
        <path
           inkscape:connector-curvature="0"
           id="path4690"
           style="letter-spacing:2.8499999px;fill:#ff6600;fill-opacity:1"
           d="m 674.91598,749.6133 -2.40058,-0.49471 -3.51216,-6.48835 -2.60608,-0.53705 -1.13955,5.52974 -1.84948,-0.38113 2.86621,-13.90843 3.8951,0.80269 q 1.26101,0.25987 2.06703,0.60124 0.80795,0.33204 1.39386,0.89097 0.65844,0.6323 0.92863,1.4475 0.28145,0.80779 0.0524,1.91934 -0.30991,1.50387 -1.27633,2.36609 -0.9645,0.85289 -2.39676,1.09329 l 3.97772,7.15881 z m -2.26512,-10.88588 q 0.12319,-0.59781 0.003,-1.09978 -0.10925,-0.50939 -0.52953,-0.92707 -0.34583,-0.35365 -0.87576,-0.56997 -0.52801,-0.22566 -1.27527,-0.37966 l -2.1764,-0.4485 -1.08181,5.24952 1.86816,0.38498 q 0.87803,0.18094 1.56269,0.16624 0.68657,-0.024 1.23089,-0.35007 0.50119,-0.30569 0.80129,-0.76967 0.31137,-0.47139 0.47306,-1.25602 z" />
        <path
           inkscape:connector-curvature="0"
           id="path4692"
           style="letter-spacing:2.8499999px;fill:#ff6600;fill-opacity:1"
           d="m 690.44256,738.74646 -5.04337,-0.55409 -1.36751,12.44727 -1.87704,-0.20622 1.3675,-12.44727 -5.04337,-0.55408 0.18331,-1.66848 11.96378,1.31438 -0.1833,1.66849 z" />
        <path
           inkscape:connector-curvature="0"
           id="path4694"
           style="letter-spacing:2.8499999px;fill:#ff6600;fill-opacity:1"
           d="m 703.90796,751.49182 -2.01212,-0.0286 -1.33608,-3.97725 -6.14125,-0.0872 -1.44846,3.93771 -1.91675,-0.0272 5.37017,-14.12587 2.51753,0.0357 4.96696,14.27264 z m -3.90688,-5.63521 -2.38995,-7.00623 -2.59743,6.93541 4.98738,0.0708 z" />
        <path
           inkscape:connector-curvature="0"
           id="path4696"
           style="letter-spacing:2.8499999px;fill:#ff6600;fill-opacity:1"
           d="m 713.90346,750.79912 -5.593,0.40701 -0.10522,-1.44581 1.85482,-0.13498 -0.82026,-11.27161 -1.85482,0.13498 -0.10522,-1.44581 5.593,-0.40701 0.10522,1.44581 -1.85482,0.13498 0.82026,11.27161 1.85482,-0.13498 0.10522,1.44581 z" />
        <path
           inkscape:connector-curvature="0"
           id="path4698"
           style="letter-spacing:2.8499999px;fill:#ff6600;fill-opacity:1"
           d="m 730.6517,748.43845 -2.30551,0.37975 -8.70821,-11.4402 2.06456,12.53448 -1.7409,0.28674 -2.3079,-14.01188 2.88895,-0.47584 7.94497,10.4447 -1.88476,-11.44289 1.7409,-0.28674 2.3079,14.01188 z" />
        <path
           inkscape:connector-curvature="0"
           id="path4700"
           style="letter-spacing:2.8499999px;fill:#ff6600;fill-opacity:1"
           d="m 749.29437,743.54935 -1.81539,0.51979 -3.36814,-11.76335 -1.50401,9.09105 -1.0819,0.30977 -6.06011,-6.92525 3.36814,11.76335 -1.69619,0.48567 -3.90894,-13.65209 2.47553,-0.70881 5.81624,6.55859 1.34446,-8.60888 2.52137,-0.72193 3.90894,13.65209 z" />
        <path
           inkscape:connector-curvature="0"
           id="path4702"
           style="letter-spacing:2.8499999px;fill:#ff6600;fill-opacity:1"
           d="m 764.24962,737.73646 -8.66632,3.52519 -5.35067,-13.15407 8.66632,-3.52519 0.63245,1.55481 -6.91716,2.81369 1.46614,3.60434 6.91715,-2.81369 0.63245,1.55482 -6.91715,2.81368 1.98719,4.88529 6.91715,-2.81368 0.63245,1.55481 z" />
        <path
           inkscape:connector-curvature="0"
           id="path4704"
           style="letter-spacing:2.8499999px;fill:#ff6600;fill-opacity:1"
           d="m 779.12868,730.177 -2.06247,1.09809 -11.91334,-8.0488 5.97005,11.21311 -1.55737,0.82917 -6.67374,-12.53477 2.58441,-1.37599 10.87149,7.35018 -5.45014,-10.2366 1.55738,-0.82917 6.67373,12.53478 z" />
        <path
           inkscape:connector-curvature="0"
           id="path4706"
           style="letter-spacing:2.8499999px;fill:#ff6600;fill-opacity:1"
           d="m 786.19729,710.66323 -4.21023,2.83136 6.98794,10.39102 -1.56696,1.05378 -6.98794,-10.39102 -4.21022,2.83136 -0.93669,-1.39285 9.9874,-6.71651 0.9367,1.39286 z" />
        <path
           inkscape:connector-curvature="0"
           id="path4708"
           style="letter-spacing:2.8499999px;fill:#ff6600;fill-opacity:1"
           d="m 811.76263,703.69054 q -0.22584,0.52586 -0.40171,0.96559 -0.16892,0.43321 -0.5195,1.06307 -0.30019,0.53025 -0.71604,1.09057 -0.40236,0.56074 -1.00041,1.12203 -1.12656,1.05731 -2.34515,1.61242 -1.21815,0.54163 -2.53273,0.50669 -1.28762,-0.0341 -2.61602,-0.69693 -1.33493,-0.66981 -2.6011,-2.0189 -1.20089,-1.27955 -1.78564,-2.62727 -0.58475,-1.34772 -0.55591,-2.68273 0.0276,-1.29457 0.62654,-2.5238 0.60594,-1.23574 1.7464,-2.30611 0.83449,-0.78319 1.85129,-1.35819 1.02376,-0.58153 2.51549,-1.02677 l 1.53376,1.63421 -0.10431,0.0979 q -1.52759,0.0865 -2.67578,0.54938 -1.1482,0.46288 -2.10785,1.36355 -0.78581,0.73751 -1.17715,1.58873 -0.3909,0.83774 -0.38209,1.83659 0.01,0.97189 0.48902,2.02615 0.47978,1.04077 1.45877,2.08388 1.02468,1.09179 2.05425,1.60348 1.03653,0.50516 1.96585,0.56161 0.96975,0.0577 1.85143,-0.29889 0.88212,-0.37011 1.60534,-1.04888 0.99443,-0.9333 1.54388,-2.08988 0.54945,-1.15657 0.66784,-2.54947 l 0.0974,-0.0914 1.51418,1.61334 z" />
        <path
           inkscape:connector-curvature="0"
           id="path4710"
           style="letter-spacing:2.8499999px;fill:#ff6600;fill-opacity:1"
           d="m 822.39658,693.33147 -6.14555,7.05437 -10.7074,-9.32797 6.14556,-7.05437 1.26561,1.10256 -4.90517,5.63056 2.93393,2.55595 4.90517,-5.63055 1.26562,1.10256 -4.90517,5.63055 3.97662,3.46432 4.90517,-5.63055 1.26561,1.10257 z" />
        <path
           inkscape:connector-curvature="0"
           id="path4712"
           style="letter-spacing:2.8499999px;fill:#ff6600;fill-opacity:1"
           d="m 832.2649,679.87216 -1.34554,1.91026 -14.26297,-1.81071 10.38559,7.31539 -1.01602,1.44244 -11.60973,-8.17763 1.68606,-2.39368 13.01801,1.65705 -9.48115,-6.67831 1.01603,-1.44245 11.60972,8.17764 z" />
        <path
           inkscape:connector-curvature="0"
           id="path4714"
           style="letter-spacing:2.8499999px;fill:#ff6600;fill-opacity:1"
           d="m 829.79165,659.26284 -2.48555,4.42319 10.91665,6.13444 -0.92507,1.64623 -10.91665,-6.13444 -2.48554,4.4232 -1.46332,-0.82229 5.89616,-10.49262 1.46332,0.82229 z" />
        <path
           inkscape:connector-curvature="0"
           id="path4716"
           style="letter-spacing:2.8499999px;fill:#ff6600;fill-opacity:1"
           d="m 846.57144,652.53288 -3.79317,8.55243 -12.9812,-5.75742 3.79317,-8.55242 1.53438,0.68052 -3.02758,6.82625 3.55697,1.57759 3.02758,-6.82625 1.53438,0.68053 -3.02758,6.82624 4.82109,2.13825 3.02758,-6.82624 1.53438,0.68052 z" />
        <path
           inkscape:connector-curvature="0"
           id="path4718"
           style="letter-spacing:2.8499999px;fill:#ff6600;fill-opacity:1"
           d="m 852.34345,635.90088 -0.76645,2.3281 -6.84797,2.74576 -0.83206,2.5274 5.3628,1.76551 -0.5905,1.79364 -13.48852,-4.44063 1.24362,-3.77751 q 0.4026,-1.22293 0.83407,-1.98454 0.4224,-0.76459 1.04477,-1.28262 0.70357,-0.58167 1.54435,-0.75669 0.83472,-0.18707 1.91271,0.16782 1.45846,0.48015 2.2043,1.53898 0.73679,1.05585 0.81154,2.50622 l 7.56734,-3.13144 z m -11.07369,1.00316 q -0.57976,-0.19086 -1.09224,-0.12864 -0.51854,0.0502 -0.98162,0.41983 -0.39095,0.30304 -0.66655,0.80471 -0.28466,0.49868 -0.52324,1.22338 l -0.69487,2.11069 5.09103,1.67605 0.59646,-1.81175 q 0.28033,-0.85153 0.34415,-1.53336 0.0548,-0.68481 -0.20675,-1.2629 -0.24626,-0.5329 -0.67281,-0.88418 -0.43262,-0.36332 -1.19356,-0.61383 z" />
      </g>
      <g
         transform="matrix(0.04147166,0,0,0.04147166,-25477.208,-10558.409)"
         style="opacity:1;fill:#ff6600;fill-opacity:1;stroke:none"
         id="g4147">
        <path
           style="fill:#ff6600;fill-opacity:1;fill-rule:evenodd;stroke:none;stroke-width:1.2246691px;stroke-linecap:butt;stroke-linejoin:miter;stroke-opacity:1"
           d="m -104.2475,-237.1952 c -38.17362,3.76694 -76.49197,10.63882 -111.52111,26.2713 -35.29366,15.75053 -66.10035,39.85033 -96.44276,63.789 -13.06676,10.30903 -26.30789,20.82707 -35.94412,34.3976 -6.13003,8.6328 -10.78553,18.475084 -18.52218,25.703277 -3.86833,3.614096 -8.52022,6.512888 -13.67729,7.708855 -5.15706,1.195966 -10.84366,0.564387 -15.27933,-2.325333 -4.61254,-3.004949 -7.57,-8.400027 -7.62229,-13.9048 -3.95655,-68.592679 6.9485,-138.004839 31.7479,-202.079799 22.32672,-57.68622 55.48225,-110.48576 81.89626,-166.4186 60.89677,-128.95161 84.85897,-271.99112 101.34255,-413.6429 6.87937,-59.11793 12.59413,-118.51607 25.20782,-176.6809 12.61368,-58.1649 32.42179,-115.4697 65.386337,-165.0237 13.928545,-20.9381 30.127166,-40.365 48.220441,-57.8304 18.093274,17.4654 34.291895,36.8923 48.2204395,57.8304 32.9645425,49.554 52.7726535,106.8588 65.3863405,165.0237 12.613688,58.16483 18.32845,117.56297 25.20782,176.6809 16.483582,141.65178 40.445772,284.6913 101.342552,413.6429 26.41401,55.93283 59.56954,108.73234 81.89626,166.41855 24.79942,64.07498 35.70447,133.48717 31.7479,202.079871 -0.0542,5.504411 -3.01109,10.898357 -7.62229,13.90474 -4.43555,2.891868 -10.12274,3.526695 -15.28152,2.333353 -5.15877,-1.193341 -9.81331,-4.090267 -13.68356,-7.70389 -7.74048,-7.227247 -12.39558,-17.072344 -18.51373,-25.716214 -9.617,-13.58712 -22.82206,-24.15514 -35.94412,-34.3976 -30.44256,-23.76202 -61.68231,-46.96355 -96.44275,-63.78899 C 82.213373,-227.6933 43.754595,-234.83844 5.3369675,-237.1952 l -54.7922395,-3.36128 c -18.297258,0.44247 -36.578087,1.56392 -54.792228,3.36128 z"
           id="path4141-0"
           inkscape:path-effect="#path-effect4143-0"
           inkscape:original-d="m -104.2475,-237.1952 c -50.52802,3.1019 -64.4408,-15.534 -111.52111,26.2713 -23.54016,20.9027 -70.5409,36.2247 -96.44276,63.789 -12.95093,13.7822 -20.62916,17.9372 -35.94412,34.3976 -15.31497,16.460399 -38.26666,45.226099 -47.4788,31.086799 -58.69787,-90.093099 -7.62229,-13.9048 -7.62229,-13.9048 -6.12615,6.597 106.9093,-122.397499 31.7479,-202.079799 -181.75192,-192.6844 7.79272,38.7123 81.89626,-166.4186 37.05176,-102.5654 70.09285,-264.099 101.34255,-413.6429 31.24969,-149.5438 60.70799,-287.098 90.594157,-341.7046 119.54471,-218.4264 48.220441,-57.8304 48.220441,-57.8304 0,0 -71.324268,-160.596 48.2204395,57.8304 29.8861805,54.6066 59.3444705,192.1608 90.5941605,341.7046 31.249702,149.54386 64.290782,311.07743 101.342552,413.6429 74.10354,205.13093 263.64818,-26.2658 81.89626,166.41855 -75.16141,79.68237 37.87405,208.676901 31.7479,202.079871 0,0 51.07558,-76.188331 -7.62229,13.90474 -9.21214,14.139352 -32.16383,-14.62636 -47.47881,-31.086751 -15.31496,-16.46038 -22.99319,-20.61543 -35.94412,-34.3976 -25.90185,-27.56435 -72.90259,-42.88633 -96.44275,-63.78899 C 69.777758,-252.7292 55.865115,-234.0955 5.3369675,-237.1952 l -54.7922395,-3.36128 z"
           inkscape:connector-curvature="0"
           sodipodi:nodetypes="sssscssssscssssscsssscs" />
      </g>
      <path
         inkscape:connector-curvature="0"
         id="path4826"
         d="m -25557.911,-10796.466 c 15.86,3.329 40.83,1.615 68.719,-4.718 38.294,-8.696 75.037,-24.301 92.523,-39.297 10.337,-8.864 12.884,-16.393 7.36,-21.758 -3.749,-3.641 -10.905,-5.845 -21.565,-6.641 -7.597,-0.567 -17.474,-0.262 -27.838,0.86 l -4.672,0.506 -0.603,-0.712 c -3.763,-4.445 -10.114,-9.172 -16.091,-11.978 -3.612,-1.696 -10.887,-3.756 -14.727,-4.17 -15.17,-1.637 -29.855,3.581 -40.359,14.34 -6.628,6.789 -11.418,16.019 -13.032,25.117 l -0.269,1.514 -7.268,3.632 c -10.885,5.439 -17.383,9.389 -23.847,14.496 -12.218,9.651 -15.545,17.806 -9.615,23.562 2.256,2.189 6.815,4.309 11.284,5.247 z m 15.3,-18.1 c -3.583,-3.524 0.477,-9.122 11.285,-15.564 l 2.548,-1.518 0.154,1.54 c 0.457,4.543 2.23,10.349 4.69,15.358 l 1.676,3.413 -0.784,0.04 c -9.323,0.498 -17.05,-0.793 -19.569,-3.271 z m 110.597,-25.074 c -0.321,-4.881 -1.792,-10.981 -3.731,-15.471 -0.548,-1.266 -0.969,-2.386 -0.936,-2.487 0.03,-0.101 1.535,-0.189 3.337,-0.196 11.5,-0.04 17.55,2.195 17.325,6.411 -0.153,2.891 -3.929,6.946 -10.222,10.975 -2.581,1.654 -5.524,3.385 -5.577,3.281 -0.02,-0.04 -0.108,-1.171 -0.196,-2.513 z m -58.99,50.933 c 8.876,1.769 16.923,1.404 25.214,-1.144 3.314,-1.018 10.355,-4.478 13.194,-6.484 6.024,-4.257 11.151,-9.992 14.734,-16.483 0.483,-0.874 0.841,-1.602 0.795,-1.617 -0.05,-0.02 -1.851,0.676 -4.011,1.535 -18.492,7.358 -41.615,13.888 -61.713,17.429 -3.515,0.619 -3.51,0.547 -0.193,2.35 1.914,1.041 9.997,4.019 11.98,4.414 z"
         style="fill:#ff6600" />
    </g>
  </g>
</svg>
