<?xml version="1.0" encoding="UTF-8" standalone="no"?>
<!-- Generator: Adobe Illustrator 18.0.0, SVG Export Plug-In . SVG Version: 6.00 Build 0)  -->

<svg
   xmlns:dc="http://purl.org/dc/elements/1.1/"
   xmlns:cc="http://creativecommons.org/ns#"
   xmlns:rdf="http://www.w3.org/1999/02/22-rdf-syntax-ns#"
   xmlns:svg="http://www.w3.org/2000/svg"
   xmlns="http://www.w3.org/2000/svg"
   xmlns:sodipodi="http://sodipodi.sourceforge.net/DTD/sodipodi-0.dtd"
   xmlns:inkscape="http://www.inkscape.org/namespaces/inkscape"
   version="1.1"
   x="0px"
   y="0px"
   viewBox="0 0 1378 1109.6"
   enable-background="new 0 0 1378 1109.6"
   xml:space="preserve"
   id="svg2"
   inkscape:version="0.91 r13725"
   sodipodi:docname="SocialMedia.svg"><metadata
     id="metadata245"><rdf:RDF><cc:Work
         rdf:about=""><dc:format>image/svg+xml</dc:format><dc:type
           rdf:resource="http://purl.org/dc/dcmitype/StillImage" /><dc:title></dc:title></cc:Work></rdf:RDF></metadata><defs
     id="defs243" /><sodipodi:namedview
     pagecolor="#ffffff"
     bordercolor="#666666"
     borderopacity="1"
     objecttolerance="10"
     gridtolerance="10"
     guidetolerance="10"
     inkscape:pageopacity="0"
     inkscape:pageshadow="2"
     inkscape:window-width="1536"
     inkscape:window-height="801"
     id="namedview241"
     showgrid="false"
     showborder="false"
     inkscape:zoom="0.90509668"
     inkscape:cx="585.05426"
     inkscape:cy="580.92539"
     inkscape:window-x="-8"
     inkscape:window-y="-8"
     inkscape:window-maximized="1"
     inkscape:current-layer="svg2" /><g
     transform="translate(-73.70678,264.99999)"
     style="fill:#ffffff"
     id="Instagram_7_"
     inkscape:export-xdpi="90"
     inkscape:export-ydpi="90"><path
       inkscape:connector-curvature="0"
       style="fill:#ffffff"
       d="m 1025.1,271.4 -27.9,0 c -2.4,0 -4.4,1.9 -4.4,4.3 l 0,28 c 0,2.4 2,4.3 4.4,4.3 l 27.9,0 c 2.4,0 4.4,-1.9 4.4,-4.3 l 0,-28 c -0.1,-2.4 -2,-4.3 -4.4,-4.3 z m -6,5.7 c 0,-0.6 0.5,-1.1 1.1,-1.1 l 3.4,0 c 0.6,0 1.1,0.5 1.1,1.1 l 0,3.4 c 0,0.6 -0.5,1.1 -1.1,1.1 l -3.4,0 c -0.6,0 -1.1,-0.5 -1.1,-1.1 l 0,-3.4 z m -8,5.6 c 3.9,0 7.1,3.1 7.1,7 0,3.9 -3.2,7 -7.1,7 -3.9,0 -7,-3.1 -7,-7 0,-3.8 3.1,-7 7,-7 z m 14.9,20.7 c 0,0.6 -0.5,1.1 -1.1,1.1 l -27.5,0 c -0.6,0 -1.1,-0.5 -1.1,-1.1 l 0,-17.2 4.6,0 c -0.6,0.9 -0.8,2.5 -0.8,3.5 0,6.1 5,11.1 11.2,11.1 6.2,0 11.2,-5 11.2,-11.1 0,-1 -0.1,-2.6 -0.9,-3.5 l 4.6,0 0,17.2 z"
       id="Instagram_1_" /><path
       inkscape:connector-curvature="0"
       style="fill:#ffffff"
       id="path173"
       d="m 1010.1,329.3 c -21.8,0 -39.5,-17.7 -39.5,-39.5 0,-21.8 17.7,-39.5 39.5,-39.5 21.8,0 39.5,17.7 39.5,39.5 0,21.8 -17.7,39.5 -39.5,39.5 z m 0,-76 c -20.1,0 -36.5,16.4 -36.5,36.5 0,20.1 16.4,36.5 36.5,36.5 20.1,0 36.5,-16.4 36.5,-36.5 0,-20.1 -16.4,-36.5 -36.5,-36.5 z" /></g><g
     transform="translate(96.876369,59.49708)"
     style="fill:#ffffff"
     id="Twitter_7_"
     inkscape:export-xdpi="90"
     inkscape:export-ydpi="90"><g
       transform="translate(-373.44077,205.50291)"
       id="g5870"
       style="fill:#ffffff"><path
         id="Twitter_1_"
         d="m 900.4,274.6 c -1.5,0.9 -3.1,1.6 -4.9,1.9 -1.4,-1.5 -3.4,-2.5 -5.6,-2.5 -4.2,0 -7.7,3.5 -7.7,7.9 0,0.6 0.1,1.2 0.2,1.8 -6.4,-0.3 -12,-3.5 -15.8,-8.2 -0.7,1.2 -1,2.5 -1,4 0,2.7 1.4,5.1 3.4,6.6 -1.3,0 -2.4,-0.4 -3.5,-1 l 0,0.1 c 0,3.8 2.6,7 6.2,7.7 -0.6,0.2 -1.3,0.3 -2,0.3 -0.5,0 -1,0 -1.4,-0.1 1,3.1 3.8,5.4 7.2,5.5 -2.6,2.1 -5.9,3.4 -9.5,3.4 -0.6,0 -1.2,0 -1.8,-0.1 3.4,2.2 7.4,3.5 11.8,3.5 14.1,0 21.9,-12 21.9,-22.4 0,-0.3 0,-0.7 0,-1 1.5,-1.1 2.8,-2.5 3.8,-4.1 -1.4,0.6 -2.9,1.1 -4.4,1.2 1.3,-1.2 2.5,-2.7 3.1,-4.5 z"
         style="fill:#ffffff"
         inkscape:connector-curvature="0" /><path
         d="m 883.1,329.3 c -21.8,0 -39.5,-17.7 -39.5,-39.5 0,-21.8 17.7,-39.5 39.5,-39.5 21.8,0 39.5,17.7 39.5,39.5 0,21.8 -17.7,39.5 -39.5,39.5 z m 0,-76 c -20.1,0 -36.5,16.4 -36.5,36.5 0,20.1 16.4,36.5 36.5,36.5 20.1,0 36.5,-16.4 36.5,-36.5 0,-20.1 -16.4,-36.5 -36.5,-36.5 z"
         id="path177"
         style="fill:#ffffff"
         inkscape:connector-curvature="0" /></g></g><g
     transform="translate(402.36441,265.99999)"
     style="fill:#ffffff"
     id="Facebook_6_"
     inkscape:export-xdpi="90"
     inkscape:export-ydpi="90"><path
       inkscape:connector-curvature="0"
       style="fill:#ffffff"
       id="path206"
       d="m 369.1,328.3 c -21.8,0 -39.5,-17.7 -39.5,-39.5 0,-21.8 17.7,-39.5 39.5,-39.5 21.8,0 39.5,17.7 39.5,39.5 0,21.8 -17.7,39.5 -39.5,39.5 z m 0,-76 c -20.1,0 -36.5,16.4 -36.5,36.5 0,20.1 16.4,36.5 36.5,36.5 20.1,0 36.5,-16.4 36.5,-36.5 0,-20.1 -16.4,-36.5 -36.5,-36.5 z" /><path
       inkscape:connector-curvature="0"
       style="fill:#ffffff"
       d="m 387.2,304.4 c 0,1.1 -0.9,2 -2,2 l -9.4,0 0,-14.2 4.8,0 0.7,-5.5 -5.5,0 0,-3.5 c 0,-1.6 0.4,-2.7 2.7,-2.7 l 2.9,0 0,-5 c -0.5,-0.1 -2.2,-0.2 -4.3,-0.2 -4.2,0 -7.1,2.6 -7.1,7.3 l 0,4.1 -4.8,0 0,5.5 4.8,0 0,14.2 -17.6,0 c -1.1,0 -2,-0.9 -2,-2 l 0,-32.7 c 0,-1.1 0.9,-2 2,-2 l 32.7,0 c 1.1,0 2,0.9 2,2 l 0,32.7 z"
       id="Facebook_1_" /></g><g
     transform="translate(202.50678,265.99999)"
     style="fill:#ffffff"
     id="Google_x2B__5_"
     inkscape:export-xdpi="90"
     inkscape:export-ydpi="90"><path
       inkscape:connector-curvature="0"
       style="fill:#ffffff"
       id="path210"
       d="m 239.1,328.3 c -21.8,0 -39.5,-17.7 -39.5,-39.5 0,-21.8 17.7,-39.5 39.5,-39.5 21.8,0 39.5,17.7 39.5,39.5 0,21.8 -17.7,39.5 -39.5,39.5 z m 0,-76 c -20.1,0 -36.5,16.4 -36.5,36.5 0,20.1 16.4,36.5 36.5,36.5 20.1,0 36.5,-16.4 36.5,-36.5 0,-20.1 -16.4,-36.5 -36.5,-36.5 z" /><path
       inkscape:connector-curvature="0"
       style="fill:#ffffff"
       id="path212"
       d="m 231.4,285.9 0,5.1 c 0,0 4.9,0 6.9,0 -1.1,3.3 -2.8,5.1 -6.9,5.1 -4.2,0 -7.5,-3.4 -7.5,-7.6 0,-4.2 3.3,-7.6 7.5,-7.6 2.2,0 3.7,0.8 5,1.9 1.1,-1.1 1,-1.2 3.6,-3.7 -2.3,-2.1 -5.3,-3.3 -8.6,-3.3 -7.1,0 -12.8,5.7 -12.8,12.8 0,7.1 5.7,12.8 12.8,12.8 10.6,0 13.2,-9.2 12.3,-15.4 l -12.3,0 z" /><polygon
       style="fill:#ffffff"
       id="polygon214"
       points="251.4,281.7 251.4,286.2 246.8,286.2 246.8,289.4 251.4,289.4 251.4,293.9 254.5,293.9 254.5,289.4 259,289.4 259,286.2 254.5,286.2 254.5,281.7 " /></g></svg>