<?xml version="1.0" encoding="UTF-8" standalone="no"?>
<!-- Created with Inkscape (http://www.inkscape.org/) -->

<svg
   xmlns:dc="http://purl.org/dc/elements/1.1/"
   xmlns:cc="http://creativecommons.org/ns#"
   xmlns:rdf="http://www.w3.org/1999/02/22-rdf-syntax-ns#"
   xmlns:svg="http://www.w3.org/2000/svg"
   xmlns="http://www.w3.org/2000/svg"
   xmlns:sodipodi="http://sodipodi.sourceforge.net/DTD/sodipodi-0.dtd"
   xmlns:inkscape="http://www.inkscape.org/namespaces/inkscape"
   width="136.62793mm"
   height="142.25708mm"
   viewBox="0 0 484.11472 504.06052"
   id="svg2"
   version="1.1"
   inkscape:version="0.91 r13725"
   inkscape:export-filename="C:\Users\Yuktesh\LogoCosmos.png"
   inkscape:export-xdpi="90"
   inkscape:export-ydpi="90"
   sodipodi:docname="Updatedlogo.svg">
  <defs
     id="defs4">
    <inkscape:path-effect
       effect="spiro"
       id="path-effect4658"
       is_visible="true" />
    <inkscape:path-effect
       effect="spiro"
       id="path-effect4654"
       is_visible="true" />
    <inkscape:path-effect
       effect="spiro"
       id="path-effect4143-0"
       is_visible="true" />
  </defs>
  <sodipodi:namedview
     id="base"
     pagecolor="#ffffff"
     bordercolor="#666666"
     borderopacity="1.0"
     inkscape:pageopacity="0.0"
     inkscape:pageshadow="2"
     inkscape:zoom="0.5"
     inkscape:cx="417.8002"
     inkscape:cy="191.09179"
     inkscape:document-units="px"
     inkscape:current-layer="layer1"
     showgrid="false"
     showborder="false"
     inkscape:object-nodes="false"
     inkscape:window-width="1536"
     inkscape:window-height="801"
     inkscape:window-x="-8"
     inkscape:window-y="-8"
     inkscape:window-maximized="1"
     fit-margin-top="0"
     fit-margin-left="0"
     fit-margin-right="0"
     fit-margin-bottom="0" />
  <metadata
     id="metadata7">
    <rdf:RDF>
      <cc:Work
         rdf:about="">
        <dc:format>image/svg+xml</dc:format>
        <dc:type
           rdf:resource="http://purl.org/dc/dcmitype/StillImage" />
        <dc:title></dc:title>
      </cc:Work>
    </rdf:RDF>
  </metadata>
  <g
     inkscape:label="Layer 1"
     inkscape:groupmode="layer"
     id="layer1"
     transform="translate(-335.32348,-182.16213)">
    <g
       id="g4186"
       transform="translate(-122,-100)">
      <path
         inkscape:connector-curvature="0"
         inkscape:original-d="m 941.43824,572.43679 -80.01401,46.19611 0,-95.2707 z"
         inkscape:path-effect="#path-effect4658"
         id="path4656"
         d="m 941.43824,572.43679 -80.01401,46.19611 0,-95.2707 80.01401,49.07459 z"
         style="opacity:1;fill:#ff6600;fill-opacity:1;fill-rule:evenodd;stroke:none;stroke-width:1px;stroke-linecap:butt;stroke-linejoin:miter;stroke-opacity:1" />
      <path
         inkscape:connector-curvature="0"
         inkscape:original-d="M 457.32348,507.03977 547.24381,455.12424 562,523.3622 Z"
         inkscape:path-effect="#path-effect4654"
         id="path4652"
         d="M 457.32348,507.03977 547.24381,455.12424 562,523.3622 457.32348,507.03977 Z"
         style="opacity:1;fill:#ff6600;fill-opacity:1;fill-rule:evenodd;stroke:none;stroke-width:1px;stroke-linecap:butt;stroke-linejoin:miter;stroke-opacity:1" />
      <path
         id="path4276"
         d="m 699.38086,282.16211 -5,2.88672 -5,2.88672 -183.55859,105.97656 0,198.75195 c 0,106.67671 86.88187,193.55865 193.55859,193.5586 106.67676,8e-5 193.55871,-86.88185 193.55859,-193.5586 l 0,-198.75195 -193.55859,-111.75 z"
         style="color:#000000;font-style:normal;font-variant:normal;font-weight:normal;font-stretch:normal;font-size:medium;line-height:normal;font-family:sans-serif;text-indent:0;text-align:start;text-decoration:none;text-decoration-line:none;text-decoration-style:solid;text-decoration-color:#000000;letter-spacing:normal;word-spacing:normal;text-transform:none;direction:ltr;block-progression:tb;writing-mode:lr-tb;baseline-shift:baseline;text-anchor:start;white-space:normal;clip-rule:nonzero;display:inline;overflow:visible;visibility:visible;opacity:1;isolation:auto;mix-blend-mode:normal;color-interpolation:sRGB;color-interpolation-filters:linearRGB;solid-color:#000000;solid-opacity:1;fill:#000000;fill-opacity:1;fill-rule:nonzero;stroke:none;stroke-width:20;stroke-linecap:butt;stroke-linejoin:miter;stroke-miterlimit:4;stroke-dasharray:none;stroke-dashoffset:0;stroke-opacity:1;color-rendering:auto;image-rendering:auto;shape-rendering:auto;text-rendering:auto;enable-background:accumulate"
         inkscape:connector-curvature="0" />
      <path
         id="path4267"
         d="m 699.38086,293.70898 -5,2.88672 -178.55859,103.08985 0,192.97851 c 0,101.25819 82.30039,183.55865 183.55859,183.5586 101.25824,8e-5 183.5587,-82.30038 183.55859,-183.5586 l 0,-192.97851 -183.55859,-105.97657 z"
         style="color:#000000;font-style:normal;font-variant:normal;font-weight:normal;font-stretch:normal;font-size:medium;line-height:normal;font-family:sans-serif;text-indent:0;text-align:start;text-decoration:none;text-decoration-line:none;text-decoration-style:solid;text-decoration-color:#000000;letter-spacing:normal;word-spacing:normal;text-transform:none;direction:ltr;block-progression:tb;writing-mode:lr-tb;baseline-shift:baseline;text-anchor:start;white-space:normal;clip-rule:nonzero;display:inline;overflow:visible;visibility:visible;opacity:1;isolation:auto;mix-blend-mode:normal;color-interpolation:sRGB;color-interpolation-filters:linearRGB;solid-color:#000000;solid-opacity:1;fill:#ff6600;fill-opacity:1;fill-rule:nonzero;stroke:none;stroke-width:20;stroke-linecap:butt;stroke-linejoin:miter;stroke-miterlimit:4;stroke-dasharray:none;stroke-dashoffset:0;stroke-opacity:1;color-rendering:auto;image-rendering:auto;shape-rendering:auto;text-rendering:auto;enable-background:accumulate"
         inkscape:connector-curvature="0" />
      <path
         style="opacity:1;fill:#000000;fill-opacity:1;stroke:none;stroke-width:6.39035034;stroke-miterlimit:4;stroke-dasharray:none;stroke-opacity:1"
         d="m 699.38086,305.25586 -173.55859,100.20312 0,187.20508 c 0,95.85379 77.7048,173.55865 173.55859,173.5586 95.85384,8e-5 173.55874,-77.70479 173.55864,-173.5586 l 0,-187.20508 z"
         id="path4237"
         inkscape:connector-curvature="0"
         sodipodi:nodetypes="ccssscc" />
      <path
         inkscape:connector-curvature="0"
         id="path4649"
         d="m 457.32348,507.03977 0,12.33412 0,113.0629 484.11476,-60 0,-125.39702 -484.11476,60 z"
         style="color:#000000;font-style:normal;font-variant:normal;font-weight:normal;font-stretch:normal;font-size:medium;line-height:normal;font-family:sans-serif;text-indent:0;text-align:start;text-decoration:none;text-decoration-line:none;text-decoration-style:solid;text-decoration-color:#000000;letter-spacing:normal;word-spacing:normal;text-transform:none;direction:ltr;block-progression:tb;writing-mode:lr-tb;baseline-shift:baseline;text-anchor:start;white-space:normal;clip-rule:nonzero;display:inline;overflow:visible;visibility:visible;opacity:1;isolation:auto;mix-blend-mode:normal;color-interpolation:sRGB;color-interpolation-filters:linearRGB;solid-color:#000000;solid-opacity:1;fill:#ff6600;fill-opacity:1;fill-rule:nonzero;stroke:none;stroke-width:24;stroke-linecap:butt;stroke-linejoin:miter;stroke-miterlimit:4;stroke-dasharray:none;stroke-dashoffset:0;stroke-opacity:1;color-rendering:auto;image-rendering:auto;shape-rendering:auto;text-rendering:auto;enable-background:accumulate" />
      <rect
         transform="matrix(0.9924071,-0.12299651,0,1,0,0)"
         y="576.05444"
         x="473.25101"
         height="100.72876"
         width="462.96173"
         id="rect4641"
         style="opacity:1;fill:#000000;fill-opacity:1;stroke:none;stroke-width:20;stroke-miterlimit:4;stroke-dasharray:none;stroke-opacity:1" />
      <text
         transform="matrix(1,-0.12393756,0,1,0,0)"
         sodipodi:linespacing="125%"
         id="text4279"
         y="662.21753"
         x="478.65012"
         style="font-style:normal;font-variant:normal;font-weight:normal;font-stretch:normal;font-size:98.47655487px;line-height:125%;font-family:'MS Sans Serif';-inkscape-font-specification:'MS Sans Serif, Normal';text-align:start;letter-spacing:0px;word-spacing:0px;writing-mode:lr-tb;text-anchor:start;opacity:1;fill:#ff6600;fill-opacity:1;stroke:none;stroke-width:1px;stroke-linecap:butt;stroke-linejoin:miter;stroke-opacity:1"
         xml:space="preserve"><tspan
           y="662.21753"
           x="478.65012"
           id="tspan4281"
           sodipodi:role="line">COSMOS</tspan></text>
      <g
         id="text4662"
         style="font-style:normal;font-variant:normal;font-weight:normal;font-stretch:normal;font-size:19.5318985px;line-height:125%;font-family:'MS Sans Serif';-inkscape-font-specification:'MS Sans Serif, Normal';text-align:start;letter-spacing:2.8499999px;word-spacing:0px;writing-mode:lr-tb;text-anchor:start;opacity:1;fill:#ff6600;fill-opacity:1;stroke:none;stroke-width:1px;stroke-linecap:butt;stroke-linejoin:miter;stroke-opacity:1">
        <path
           id="path4670"
           style="letter-spacing:2.8499999px;fill:#ff6600;fill-opacity:1"
           d="m 564.96694,649.06067 -2.48561,-6.73753 -3.75799,1.38639 2.13571,5.78909 -1.57478,0.58096 -2.1357,-5.78908 -6.41542,2.36677 -0.65359,-1.77162 13.32296,-4.9151 3.13919,8.50915 -1.57477,0.58097 z"
           inkscape:connector-curvature="0" />
        <path
           id="path4672"
           style="letter-spacing:2.8499999px;fill:#ff6600;fill-opacity:1"
           d="m 559.65937,667.21069 -0.86678,-1.81607 2.97213,-2.96143 -2.64554,-5.54289 -4.17166,0.44819 -0.8257,-1.73 15.04231,-1.45179 1.08451,2.27224 -10.58927,10.78175 z m 3.31795,-6.00088 5.21952,-5.24935 -7.36799,0.7479 2.14847,4.50145 z"
           inkscape:connector-curvature="0" />
        <path
           id="path4674"
           style="letter-spacing:2.8499999px;fill:#ff6600;fill-opacity:1"
           d="m 568.76945,682.33578 -0.9997,-1.602 10.38067,-6.47785 -9.15367,1.05812 -0.59578,-0.95473 4.98826,-7.73314 -10.38067,6.47784 -0.93407,-1.49682 12.04741,-7.51794 1.36323,2.18456 -4.70295,7.39771 8.6462,-1.07869 1.38847,2.22501 -12.0474,7.51793 z"
           inkscape:connector-curvature="0" />
        <path
           id="path4676"
           style="letter-spacing:2.8499999px;fill:#ff6600;fill-opacity:1"
           d="m 575.79198,691.69053 -3.41461,-4.44835 1.14991,-0.88269 1.1324,1.47522 8.96477,-6.88149 -1.1324,-1.47521 1.14991,-0.88269 3.41462,4.44834 -1.14992,0.88269 -1.13239,-1.47521 -8.96478,6.88148 1.1324,1.47522 -1.14991,0.88269 z"
           inkscape:connector-curvature="0" />
        <path
           id="path4678"
           style="letter-spacing:2.8499999px;fill:#ff6600;fill-opacity:1"
           d="m 585.65624,703.07782 -5.9825,-6.70226 10.59412,-9.45642 1.25747,1.40876 -9.3419,8.33867 4.72504,5.2935 -1.25223,1.11775 z"
           inkscape:connector-curvature="0" />
        <path
           id="path4680"
           style="letter-spacing:2.8499999px;fill:#ff6600;fill-opacity:1"
           d="m 605.02196,701.88883 -9.10629,2.37028 -4.27351,4.53005 -1.37358,-1.2958 4.13608,-4.38436 1.95957,-9.38763 1.51927,1.43324 -1.53513,7.28381 7.20982,-1.93046 1.46377,1.38087 z"
           inkscape:connector-curvature="0" />
        <path
           id="path4682"
           style="letter-spacing:2.8499999px;fill:#ff6600;fill-opacity:1"
           d="m 614.40268,726.5184 -7.72128,-5.28336 8.0193,-11.71965 7.72128,5.28336 -0.94789,1.38527 -6.16285,-4.217 -2.19736,3.21129 6.16285,4.217 -0.94788,1.38527 -6.16285,-4.217 -2.97829,4.35256 6.16285,4.217 -0.94788,1.38526 z"
           inkscape:connector-curvature="0" />
        <path
           id="path4684"
           style="letter-spacing:2.8499999px;fill:#ff6600;fill-opacity:1"
           d="m 628.91563,734.75905 -2.05337,-1.11501 0.14494,-14.37671 -6.06202,11.16366 -1.55051,-0.84194 6.77653,-12.47951 2.57301,1.39718 -0.13664,13.12234 5.53409,-10.19145 1.55051,0.84194 -6.77654,12.4795 z"
           inkscape:connector-curvature="0" />
        <path
           id="path4686"
           style="letter-spacing:2.8499999px;fill:#ff6600;fill-opacity:1"
           d="m 649.09975,729.91586 -4.68129,-1.95656 -4.82887,11.55363 -1.74228,-0.72819 4.82887,-11.55363 -4.68129,-1.95656 0.64728,-1.5487 11.10486,4.64131 -0.64728,1.5487 z"
           inkscape:connector-curvature="0" />
        <path
           id="path4688"
           style="letter-spacing:2.8499999px;fill:#ff6600;fill-opacity:1"
           d="m 657.72817,745.80185 -8.9346,-2.7758 4.21321,-13.56127 8.93459,2.77579 -0.498,1.60294 -7.13128,-2.21554 -1.15446,3.71592 7.13129,2.21554 -0.49801,1.60294 -7.13128,-2.21553 -1.56474,5.03652 7.13128,2.21554 -0.498,1.60295 z"
           inkscape:connector-curvature="0" />
        <path
           id="path4690"
           style="letter-spacing:2.8499999px;fill:#ff6600;fill-opacity:1"
           d="m 674.91598,749.6133 -2.40058,-0.49471 -3.51216,-6.48835 -2.60608,-0.53705 -1.13955,5.52974 -1.84948,-0.38113 2.86621,-13.90843 3.8951,0.80269 q 1.26101,0.25987 2.06703,0.60124 0.80795,0.33204 1.39386,0.89097 0.65844,0.6323 0.92863,1.4475 0.28145,0.80779 0.0524,1.91934 -0.30991,1.50387 -1.27633,2.36609 -0.9645,0.85289 -2.39676,1.09329 l 3.97772,7.15881 z m -2.26512,-10.88588 q 0.12319,-0.59781 0.003,-1.09978 -0.10925,-0.50939 -0.52953,-0.92707 -0.34583,-0.35365 -0.87576,-0.56997 -0.52801,-0.22566 -1.27527,-0.37966 l -2.1764,-0.4485 -1.08181,5.24952 1.86816,0.38498 q 0.87803,0.18094 1.56269,0.16624 0.68657,-0.024 1.23089,-0.35007 0.50119,-0.30569 0.80129,-0.76967 0.31137,-0.47139 0.47306,-1.25602 z"
           inkscape:connector-curvature="0" />
        <path
           id="path4692"
           style="letter-spacing:2.8499999px;fill:#ff6600;fill-opacity:1"
           d="m 690.44256,738.74646 -5.04337,-0.55409 -1.36751,12.44727 -1.87704,-0.20622 1.3675,-12.44727 -5.04337,-0.55408 0.18331,-1.66848 11.96378,1.31438 -0.1833,1.66849 z"
           inkscape:connector-curvature="0" />
        <path
           id="path4694"
           style="letter-spacing:2.8499999px;fill:#ff6600;fill-opacity:1"
           d="m 703.90796,751.49182 -2.01212,-0.0286 -1.33608,-3.97725 -6.14125,-0.0872 -1.44846,3.93771 -1.91675,-0.0272 5.37017,-14.12587 2.51753,0.0357 4.96696,14.27264 z m -3.90688,-5.63521 -2.38995,-7.00623 -2.59743,6.93541 4.98738,0.0708 z"
           inkscape:connector-curvature="0" />
        <path
           id="path4696"
           style="letter-spacing:2.8499999px;fill:#ff6600;fill-opacity:1"
           d="m 713.90346,750.79912 -5.593,0.40701 -0.10522,-1.44581 1.85482,-0.13498 -0.82026,-11.27161 -1.85482,0.13498 -0.10522,-1.44581 5.593,-0.40701 0.10522,1.44581 -1.85482,0.13498 0.82026,11.27161 1.85482,-0.13498 0.10522,1.44581 z"
           inkscape:connector-curvature="0" />
        <path
           id="path4698"
           style="letter-spacing:2.8499999px;fill:#ff6600;fill-opacity:1"
           d="m 730.6517,748.43845 -2.30551,0.37975 -8.70821,-11.4402 2.06456,12.53448 -1.7409,0.28674 -2.3079,-14.01188 2.88895,-0.47584 7.94497,10.4447 -1.88476,-11.44289 1.7409,-0.28674 2.3079,14.01188 z"
           inkscape:connector-curvature="0" />
        <path
           id="path4700"
           style="letter-spacing:2.8499999px;fill:#ff6600;fill-opacity:1"
           d="m 749.29437,743.54935 -1.81539,0.51979 -3.36814,-11.76335 -1.50401,9.09105 -1.0819,0.30977 -6.06011,-6.92525 3.36814,11.76335 -1.69619,0.48567 -3.90894,-13.65209 2.47553,-0.70881 5.81624,6.55859 1.34446,-8.60888 2.52137,-0.72193 3.90894,13.65209 z"
           inkscape:connector-curvature="0" />
        <path
           id="path4702"
           style="letter-spacing:2.8499999px;fill:#ff6600;fill-opacity:1"
           d="m 764.24962,737.73646 -8.66632,3.52519 -5.35067,-13.15407 8.66632,-3.52519 0.63245,1.55481 -6.91716,2.81369 1.46614,3.60434 6.91715,-2.81369 0.63245,1.55482 -6.91715,2.81368 1.98719,4.88529 6.91715,-2.81368 0.63245,1.55481 z"
           inkscape:connector-curvature="0" />
        <path
           id="path4704"
           style="letter-spacing:2.8499999px;fill:#ff6600;fill-opacity:1"
           d="m 779.12868,730.177 -2.06247,1.09809 -11.91334,-8.0488 5.97005,11.21311 -1.55737,0.82917 -6.67374,-12.53477 2.58441,-1.37599 10.87149,7.35018 -5.45014,-10.2366 1.55738,-0.82917 6.67373,12.53478 z"
           inkscape:connector-curvature="0" />
        <path
           id="path4706"
           style="letter-spacing:2.8499999px;fill:#ff6600;fill-opacity:1"
           d="m 786.19729,710.66323 -4.21023,2.83136 6.98794,10.39102 -1.56696,1.05378 -6.98794,-10.39102 -4.21022,2.83136 -0.93669,-1.39285 9.9874,-6.71651 0.9367,1.39286 z"
           inkscape:connector-curvature="0" />
        <path
           id="path4708"
           style="letter-spacing:2.8499999px;fill:#ff6600;fill-opacity:1"
           d="m 811.76263,703.69054 q -0.22584,0.52586 -0.40171,0.96559 -0.16892,0.43321 -0.5195,1.06307 -0.30019,0.53025 -0.71604,1.09057 -0.40236,0.56074 -1.00041,1.12203 -1.12656,1.05731 -2.34515,1.61242 -1.21815,0.54163 -2.53273,0.50669 -1.28762,-0.0341 -2.61602,-0.69693 -1.33493,-0.66981 -2.6011,-2.0189 -1.20089,-1.27955 -1.78564,-2.62727 -0.58475,-1.34772 -0.55591,-2.68273 0.0276,-1.29457 0.62654,-2.5238 0.60594,-1.23574 1.7464,-2.30611 0.83449,-0.78319 1.85129,-1.35819 1.02376,-0.58153 2.51549,-1.02677 l 1.53376,1.63421 -0.10431,0.0979 q -1.52759,0.0865 -2.67578,0.54938 -1.1482,0.46288 -2.10785,1.36355 -0.78581,0.73751 -1.17715,1.58873 -0.3909,0.83774 -0.38209,1.83659 0.01,0.97189 0.48902,2.02615 0.47978,1.04077 1.45877,2.08388 1.02468,1.09179 2.05425,1.60348 1.03653,0.50516 1.96585,0.56161 0.96975,0.0577 1.85143,-0.29889 0.88212,-0.37011 1.60534,-1.04888 0.99443,-0.9333 1.54388,-2.08988 0.54945,-1.15657 0.66784,-2.54947 l 0.0974,-0.0914 1.51418,1.61334 z"
           inkscape:connector-curvature="0" />
        <path
           id="path4710"
           style="letter-spacing:2.8499999px;fill:#ff6600;fill-opacity:1"
           d="m 822.39658,693.33147 -6.14555,7.05437 -10.7074,-9.32797 6.14556,-7.05437 1.26561,1.10256 -4.90517,5.63056 2.93393,2.55595 4.90517,-5.63055 1.26562,1.10256 -4.90517,5.63055 3.97662,3.46432 4.90517,-5.63055 1.26561,1.10257 z"
           inkscape:connector-curvature="0" />
        <path
           id="path4712"
           style="letter-spacing:2.8499999px;fill:#ff6600;fill-opacity:1"
           d="m 832.2649,679.87216 -1.34554,1.91026 -14.26297,-1.81071 10.38559,7.31539 -1.01602,1.44244 -11.60973,-8.17763 1.68606,-2.39368 13.01801,1.65705 -9.48115,-6.67831 1.01603,-1.44245 11.60972,8.17764 z"
           inkscape:connector-curvature="0" />
        <path
           id="path4714"
           style="letter-spacing:2.8499999px;fill:#ff6600;fill-opacity:1"
           d="m 829.79165,659.26284 -2.48555,4.42319 10.91665,6.13444 -0.92507,1.64623 -10.91665,-6.13444 -2.48554,4.4232 -1.46332,-0.82229 5.89616,-10.49262 1.46332,0.82229 z"
           inkscape:connector-curvature="0" />
        <path
           id="path4716"
           style="letter-spacing:2.8499999px;fill:#ff6600;fill-opacity:1"
           d="m 846.57144,652.53288 -3.79317,8.55243 -12.9812,-5.75742 3.79317,-8.55242 1.53438,0.68052 -3.02758,6.82625 3.55697,1.57759 3.02758,-6.82625 1.53438,0.68053 -3.02758,6.82624 4.82109,2.13825 3.02758,-6.82624 1.53438,0.68052 z"
           inkscape:connector-curvature="0" />
        <path
           id="path4718"
           style="letter-spacing:2.8499999px;fill:#ff6600;fill-opacity:1"
           d="m 852.34345,635.90088 -0.76645,2.3281 -6.84797,2.74576 -0.83206,2.5274 5.3628,1.76551 -0.5905,1.79364 -13.48852,-4.44063 1.24362,-3.77751 q 0.4026,-1.22293 0.83407,-1.98454 0.4224,-0.76459 1.04477,-1.28262 0.70357,-0.58167 1.54435,-0.75669 0.83472,-0.18707 1.91271,0.16782 1.45846,0.48015 2.2043,1.53898 0.73679,1.05585 0.81154,2.50622 l 7.56734,-3.13144 z m -11.07369,1.00316 q -0.57976,-0.19086 -1.09224,-0.12864 -0.51854,0.0502 -0.98162,0.41983 -0.39095,0.30304 -0.66655,0.80471 -0.28466,0.49868 -0.52324,1.22338 l -0.69487,2.11069 5.09103,1.67605 0.59646,-1.81175 q 0.28033,-0.85153 0.34415,-1.53336 0.0548,-0.68481 -0.20675,-1.2629 -0.24626,-0.5329 -0.67281,-0.88418 -0.43262,-0.36332 -1.19356,-0.61383 z"
           inkscape:connector-curvature="0" />
      </g>
      <g
         transform="matrix(0.04147166,0,0,0.04147166,701.43188,690.5029)"
         style="opacity:1;fill:#ff6600;fill-opacity:1;stroke:none"
         id="g4147">
        <path
           style="fill:#ff6600;fill-opacity:1;fill-rule:evenodd;stroke:none;stroke-width:1.2246691px;stroke-linecap:butt;stroke-linejoin:miter;stroke-opacity:1"
           d="m -104.2475,-237.1952 c -38.17362,3.76694 -76.49197,10.63882 -111.52111,26.2713 -35.29366,15.75053 -66.10035,39.85033 -96.44276,63.789 -13.06676,10.30903 -26.30789,20.82707 -35.94412,34.3976 -6.13003,8.6328 -10.78553,18.475084 -18.52218,25.703277 -3.86833,3.614096 -8.52022,6.512888 -13.67729,7.708855 -5.15706,1.195966 -10.84366,0.564387 -15.27933,-2.325333 -4.61254,-3.004949 -7.57,-8.400027 -7.62229,-13.9048 -3.95655,-68.592679 6.9485,-138.004839 31.7479,-202.079799 22.32672,-57.68622 55.48225,-110.48576 81.89626,-166.4186 60.89677,-128.95161 84.85897,-271.99112 101.34255,-413.6429 6.87937,-59.11793 12.59413,-118.51607 25.20782,-176.6809 12.61368,-58.1649 32.42179,-115.4697 65.386337,-165.0237 13.928545,-20.9381 30.127166,-40.365 48.220441,-57.8304 18.093274,17.4654 34.291895,36.8923 48.2204395,57.8304 32.9645425,49.554 52.7726535,106.8588 65.3863405,165.0237 12.613688,58.16483 18.32845,117.56297 25.20782,176.6809 16.483582,141.65178 40.445772,284.6913 101.342552,413.6429 26.41401,55.93283 59.56954,108.73234 81.89626,166.41855 24.79942,64.07498 35.70447,133.48717 31.7479,202.079871 -0.0542,5.504411 -3.01109,10.898357 -7.62229,13.90474 -4.43555,2.891868 -10.12274,3.526695 -15.28152,2.333353 -5.15877,-1.193341 -9.81331,-4.090267 -13.68356,-7.70389 -7.74048,-7.227247 -12.39558,-17.072344 -18.51373,-25.716214 -9.617,-13.58712 -22.82206,-24.15514 -35.94412,-34.3976 -30.44256,-23.76202 -61.68231,-46.96355 -96.44275,-63.78899 C 82.213373,-227.6933 43.754595,-234.83844 5.3369675,-237.1952 l -54.7922395,-3.36128 c -18.297258,0.44247 -36.578087,1.56392 -54.792228,3.36128 z"
           id="path4141-0"
           inkscape:path-effect="#path-effect4143-0"
           inkscape:original-d="m -104.2475,-237.1952 c -50.52802,3.1019 -64.4408,-15.534 -111.52111,26.2713 -23.54016,20.9027 -70.5409,36.2247 -96.44276,63.789 -12.95093,13.7822 -20.62916,17.9372 -35.94412,34.3976 -15.31497,16.460399 -38.26666,45.226099 -47.4788,31.086799 -58.69787,-90.093099 -7.62229,-13.9048 -7.62229,-13.9048 -6.12615,6.597 106.9093,-122.397499 31.7479,-202.079799 -181.75192,-192.6844 7.79272,38.7123 81.89626,-166.4186 37.05176,-102.5654 70.09285,-264.099 101.34255,-413.6429 31.24969,-149.5438 60.70799,-287.098 90.594157,-341.7046 119.54471,-218.4264 48.220441,-57.8304 48.220441,-57.8304 0,0 -71.324268,-160.596 48.2204395,57.8304 29.8861805,54.6066 59.3444705,192.1608 90.5941605,341.7046 31.249702,149.54386 64.290782,311.07743 101.342552,413.6429 74.10354,205.13093 263.64818,-26.2658 81.89626,166.41855 -75.16141,79.68237 37.87405,208.676901 31.7479,202.079871 0,0 51.07558,-76.188331 -7.62229,13.90474 -9.21214,14.139352 -32.16383,-14.62636 -47.47881,-31.086751 -15.31496,-16.46038 -22.99319,-20.61543 -35.94412,-34.3976 -25.90185,-27.56435 -72.90259,-42.88633 -96.44275,-63.78899 C 69.777758,-252.7292 55.865115,-234.0955 5.3369675,-237.1952 l -54.7922395,-3.36128 z"
           inkscape:connector-curvature="0"
           sodipodi:nodetypes="sssscssssscssssscsssscs" />
      </g>
      <path
         inkscape:connector-curvature="0"
         id="path4826"
         d="m 620.72869,452.4462 c 15.85986,3.32894 40.83057,1.61434 68.7191,-4.71856 38.29429,-8.69579 75.03723,-24.30113 92.5235,-39.29625 10.33667,-8.86407 12.88362,-16.39374 7.35991,-21.75858 -3.74875,-3.64092 -10.90504,-5.84452 -21.56528,-6.64046 -7.59681,-0.56723 -17.47361,-0.26223 -27.83801,0.85965 l -4.67189,0.50569 -0.60268,-0.71179 c -3.7636,-4.44493 -10.11419,-9.17218 -16.0916,-11.97825 -3.61196,-1.69561 -10.8868,-3.75536 -14.7267,-4.16961 -15.17019,-1.63662 -29.85485,3.58095 -40.35871,14.33976 -6.62873,6.78962 -11.41788,16.01936 -13.03281,25.11701 l -0.26886,1.51464 -7.26814,3.63185 c -10.88431,5.43883 -17.38301,9.38906 -23.84681,14.49525 -12.21754,9.65147 -15.54498,17.80612 -9.61438,23.56216 2.25554,2.18916 6.81505,4.30961 11.28336,5.24749 z m 15.30011,-18.10028 c -3.58239,-3.52351 0.4771,-9.12196 11.28542,-15.56377 l 2.54733,-1.5182 0.15484,1.54023 c 0.45675,4.54307 2.22949,10.34911 4.68924,15.35805 l 1.67592,3.41271 -0.78382,0.0419 c -9.32239,0.49863 -17.04957,-0.79294 -19.56893,-3.27092 z m 110.59676,-25.07428 c -0.32007,-4.88024 -1.7914,-10.98092 -3.73105,-15.47022 -0.54736,-1.26692 -0.96815,-2.38622 -0.93506,-2.48737 0.0331,-0.10119 1.53439,-0.1895 3.33621,-0.19637 11.50013,-0.0438 17.55013,2.19497 17.3258,6.41135 -0.15383,2.89119 -3.92988,6.94551 -10.22213,10.97546 -2.58166,1.65344 -5.52438,3.38465 -5.57695,3.28094 -0.0202,-0.04 -0.1088,-1.17102 -0.19682,-2.51379 z m -58.98969,50.93369 c 8.87641,1.76836 16.92326,1.40325 25.21451,-1.14403 3.31406,-1.01816 10.3543,-4.47857 13.19334,-6.48475 6.02415,-4.25692 11.15117,-9.99203 14.73452,-16.48214 0.48291,-0.87464 0.84037,-1.60257 0.79438,-1.61761 -0.0461,-0.0151 -1.85061,0.67572 -4.01023,1.53503 -18.49199,7.35801 -41.61531,13.88838 -61.71352,17.42879 -3.51531,0.61923 -3.50939,0.54719 -0.19274,2.35079 1.91365,1.04064 9.99683,4.01888 11.97974,4.41392 z"
         style="fill:#ff6600" />
    </g>
  </g>
</svg>
